<?xml version="1.0" standalone="no"?>
<!DOCTYPE svg PUBLIC "-//W3C//DTD SVG 20010904//EN"
 "http://www.w3.org/TR/2001/REC-SVG-20010904/DTD/svg10.dtd">
<svg version="1.0" xmlns="http://www.w3.org/2000/svg"
 width="512.000000pt" height="512.000000pt" viewBox="0 0 512.000000 512.000000"
 preserveAspectRatio="xMidYMid meet">
<metadata>
Created by potrace 1.14, written by Peter Selinger 2001-2017
</metadata>
<g transform="translate(0.000000,512.000000) scale(0.100000,-0.100000)"
fill="#000000" stroke="none">
<path d="M2390 5114 c-357 -27 -712 -128 -1020 -291 -611 -322 -1074 -888
-1265 -1544 -71 -244 -99 -448 -99 -719 0 -271 28 -475 99 -719 198 -682 689
-1263 1330 -1576 83 -40 188 -87 235 -104 517 -186 1056 -208 1575 -65 698
193 1290 685 1610 1339 112 228 184 450 224 685 111 650 -28 1311 -387 1850
-415 623 -1047 1019 -1792 1125 -107 15 -410 26 -510 19z m760 -1049 c46 -24
82 -79 87 -133 4 -43 -45 -175 -525 -1430 -345 -900 -538 -1392 -553 -1409
-47 -51 -131 -68 -189 -38 -46 24 -82 79 -88 133 -4 43 40 162 517 1410 287
750 527 1375 535 1390 40 78 143 115 216 77z m-1353 -716 c84 -40 116 -141 71
-220 -25 -45 -24 -44 -521 -349 -191 -117 -344 -216 -340 -221 4 -4 168 -105
363 -224 438 -268 459 -282 487 -324 31 -46 32 -130 1 -179 -24 -40 -86 -71
-139 -72 -41 0 -57 9 -599 347 l-365 228 -35 69 c-33 64 -35 76 -35 160 1 104
20 157 84 225 31 34 375 254 810 518 116 71 147 77 218 42z m2103 -259 c239
-149 445 -281 458 -293 38 -36 83 -139 89 -204 7 -76 -16 -161 -64 -230 -32
-49 -65 -71 -456 -315 -232 -144 -438 -268 -457 -274 -78 -29 -149 -10 -196
52 -25 32 -29 47 -29 98 0 47 5 68 22 92 20 28 287 197 786 499 43 26 76 49
74 52 -3 2 -182 113 -399 246 -216 133 -402 249 -413 257 -63 46 -87 135 -56
208 20 48 83 82 151 82 55 0 58 -1 490 -270z"/>
</g>
</svg>
